<?xml version="1.0" standalone="no"?>
<!DOCTYPE svg PUBLIC "-//W3C//DTD SVG 20010904//EN"
 "http://www.w3.org/TR/2001/REC-SVG-20010904/DTD/svg10.dtd">
<svg version="1.0" xmlns="http://www.w3.org/2000/svg"
 width="3264.000000pt" height="979.000000pt" viewBox="0 0 3264.000000 979.000000"
 preserveAspectRatio="xMidYMid meet">

<g transform="translate(0.000000,979.000000) scale(0.100000,-0.100000)"
fill="#000000" stroke="none">
<path d="M29430 6793 c-48 -7 -145 -45 -180 -70 -59 -42 -237 -244 -615 -698
-142 -170 -261 -311 -264 -313 -4 -1 -115 127 -247 285 -299 360 -459 547
-548 640 -109 116 -205 153 -390 153 -168 0 -279 -41 -363 -134 -64 -69 -92
-146 -100 -272 -11 -180 43 -316 191 -471 45 -48 283 -326 527 -618 l444 -530
5 -685 c6 -746 4 -720 65 -840 25 -49 94 -119 142 -143 54 -28 150 -47 239
-47 271 1 432 116 474 340 6 30 10 230 10 464 0 226 3 523 7 660 l6 248 450
527 c248 289 489 567 537 617 98 103 148 179 179 271 60 178 22 400 -85 506
-80 80 -197 117 -359 115 -55 0 -111 -3 -125 -5z"/>
<path d="M3283 6780 c-217 -40 -325 -157 -353 -382 -25 -209 37 -390 164 -475
97 -66 107 -67 571 -73 l420 -5 5 -1245 5 -1245 23 -56 c45 -112 115 -179 230
-222 85 -31 298 -31 397 0 120 39 199 113 247 232 l23 56 5 1240 5 1240 415 6
c436 5 447 7 540 54 126 65 196 192 207 375 13 221 -55 378 -194 450 -100 51
-60 50 -1403 55 -765 2 -1275 1 -1307 -5z"/>
<path d="M10585 6775 c-183 -38 -280 -132 -326 -315 -21 -82 -21 -3018 0
-3100 42 -168 149 -269 315 -299 41 -8 452 -11 1300 -11 1336 0 1317 0 1425
52 152 73 231 268 203 497 -26 203 -116 314 -298 368 -54 16 -143 17 -1042 21
l-982 3 2 927 3 927 1000 5 1000 5 57 23 c177 72 256 193 266 410 7 180 -21
284 -102 370 -48 51 -125 95 -197 111 -28 7 -499 13 -1299 16 -1080 4 -1265 3
-1325 -10z"/>
<path d="M23475 6785 c-11 -3 -45 -10 -75 -16 -151 -31 -247 -123 -297 -284
-17 -57 -18 -133 -18 -1575 l0 -1515 23 -72 c54 -173 181 -260 393 -270 230
-12 390 61 466 210 49 98 53 143 53 684 l0 502 998 3 c934 3 1000 4 1052 22
184 61 280 213 280 446 0 143 -36 252 -108 332 -48 53 -93 81 -178 109 l-69
24 -987 3 -988 3 0 229 0 230 973 0 c832 0 981 2 1036 15 211 50 321 212 321
469 -1 194 -69 329 -202 397 -98 50 -61 49 -1398 54 -690 2 -1264 2 -1275 0z"/>
<path d="M6878 6765 c-149 -37 -239 -123 -285 -270 -17 -57 -18 -130 -18
-1580 l0 -1520 22 -70 c40 -124 128 -213 251 -252 43 -14 89 -18 192 -18 116
0 145 3 203 24 120 41 199 119 239 239 l23 67 5 1230 5 1230 565 0 c511 0 571
-2 630 -18 81 -22 115 -42 153 -90 26 -31 32 -49 35 -101 5 -79 -9 -123 -52
-165 -67 -65 -115 -73 -456 -81 -238 -6 -318 -11 -365 -24 -186 -52 -285 -200
-285 -426 0 -103 19 -181 65 -269 41 -79 35 -71 530 -683 215 -265 434 -538
489 -606 188 -235 352 -332 561 -332 293 1 455 162 458 453 0 51 -5 117 -13
147 -28 122 -54 155 -384 487 -170 172 -308 314 -305 316 2 2 37 9 78 15 358
59 580 436 616 1047 21 351 -82 633 -323 886 -164 173 -354 290 -557 346
l-100 28 -960 2 c-796 1 -970 -1 -1017 -12z"/>
<path d="M14275 6765 c-122 -23 -183 -52 -251 -119 -109 -110 -99 59 -99
-1736 l0 -1555 23 -57 c32 -79 100 -151 175 -187 97 -45 158 -56 312 -56 124
1 147 3 200 24 88 36 163 115 195 206 l25 70 5 829 5 828 121 -153 c888 -1132
1293 -1642 1333 -1679 104 -99 217 -136 384 -127 236 14 384 91 450 235 l22
47 0 1560 c0 1488 -1 1563 -18 1615 -54 160 -208 252 -444 267 -236 15 -378
-68 -439 -257 -17 -50 -19 -124 -24 -880 l-5 -824 -698 891 c-383 490 -719
910 -745 933 -131 116 -327 162 -527 125z"/>
<path d="M17893 6765 c-159 -44 -255 -144 -289 -304 -21 -98 -21 -2994 0
-3092 35 -164 134 -265 298 -304 53 -12 198 -15 908 -15 1002 0 1106 7 1400
91 643 185 1002 647 1096 1410 23 182 23 557 0 734 -44 340 -136 610 -284 831
-141 208 -315 355 -562 473 -166 79 -315 122 -580 168 -136 23 -1905 30 -1987
8z m1807 -938 c162 -28 295 -83 396 -163 199 -159 284 -382 284 -744 0 -340
-74 -556 -245 -719 -87 -82 -210 -147 -345 -182 -82 -22 -106 -22 -672 -26
l-588 -4 0 924 c0 508 3 927 8 931 4 5 248 6 542 3 403 -4 556 -9 620 -20z"/>
<path d="M22045 6765 c-125 -27 -204 -80 -255 -168 -63 -110 -60 -39 -60
-1681 0 -1074 3 -1510 11 -1548 28 -131 92 -218 199 -271 86 -44 187 -62 300
-54 205 14 330 97 392 262 l23 60 3 1520 c2 1061 -1 1536 -8 1572 -26 121 -96
215 -201 268 -102 52 -273 69 -404 40z"/>
<path d="M11755 5369 c-158 -26 -265 -113 -316 -254 -26 -74 -37 -262 -20
-346 29 -137 115 -247 228 -289 98 -37 196 -42 750 -38 504 4 531 5 590 25
175 59 261 168 286 362 28 228 -52 418 -209 495 -104 51 -160 55 -734 54 -289
0 -547 -4 -575 -9z"/>
</g>
</svg>
